<svg width="28" height="35" viewBox="0 0 28 35" fill="none" xmlns="http://www.w3.org/2000/svg">
<g clip-path="url(#clip0_15_18)">
<path fill-rule="evenodd" clip-rule="evenodd" d="M27.988 15.2558V15.2551C27.9797 13.8393 27.4085 12.6196 26.3368 11.7272C26.3362 11.7272 26.3355 11.7265 26.3355 11.7258C25.6159 11.1291 24.807 10.8513 23.9724 10.9041C23.8118 10.0638 23.3679 9.06581 22.1735 8.48034C22.1728 8.47968 22.1721 8.47969 22.1721 8.47969C21.2193 8.01304 20.2504 7.93714 19.3188 8.24406C18.9218 7.37411 18.2748 6.77544 17.3849 6.46059C17.3843 6.46059 17.3837 6.45995 17.383 6.45995C16.6718 6.20781 15.9702 6.15498 15.3026 6.29756C15.302 4.98603 15.3 3.96293 15.2968 3.59264V3.59135C15.2865 2.50755 14.8901 1.57157 14.1493 0.885114C14.148 0.884453 14.1474 0.883814 14.1467 0.882494C13.4721 0.258083 12.6241 -0.0217831 11.5659 0.00131889C11.5646 0.00197927 11.5639 0.00196379 11.5626 0.00196379C9.64737 0.0593882 8.20947 1.45869 8.06556 3.40321V3.40389C8.03022 3.88375 8.03406 4.35438 8.03856 4.80981L8.0405 14.9212C7.67492 14.7 7.3646 14.4605 7.0954 14.1938C7.09475 14.1931 7.09411 14.1925 7.09411 14.1918C6.35203 13.4552 5.71917 12.9628 5.04069 12.5951C5.04069 12.5951 5.04005 12.5945 5.03941 12.5945C4.35066 12.2196 3.41775 11.8222 2.31587 12.0611H2.31459C0.853558 12.3773 0.304232 13.2994 0.100561 14.0175C0.100561 14.0182 0.0999012 14.0189 0.0999012 14.0195C-0.0909194 14.6948 -0.00740611 15.4122 0.342111 16.0941L0.344053 16.0967C0.66016 16.7119 1.00774 17.3072 1.37717 17.8676L1.37845 17.8696L1.37911 17.8703C1.38104 17.8742 1.38361 17.8775 1.38618 17.8808L1.69586 18.3442C2.08714 18.9244 2.45657 19.4716 2.73349 20.0583C2.73413 20.059 2.73415 20.0597 2.73415 20.0603L3.73833 22.1758C4.4213 23.6121 5.10428 25.0483 5.77183 26.4912C5.77183 26.4925 5.77249 26.4932 5.77249 26.4939L6.64372 28.373C7.58947 30.4126 8.81534 33.0561 9.43406 34.4264C9.59726 34.7881 9.94549 35 10.3091 35C10.4447 35 10.5828 34.9703 10.7139 34.9076C11.1971 34.6779 11.4065 34.0891 11.1829 33.5934C10.5616 32.2185 9.33255 29.5677 8.38358 27.5216L7.51429 25.6457L7.51363 25.6444C6.84287 24.1936 6.15669 22.7501 5.4705 21.3072L4.46888 19.1963V19.1957C4.12579 18.4709 3.69594 17.8333 3.28024 17.2168L2.97441 16.7594C2.97377 16.7581 2.97315 16.7574 2.97251 16.7568C2.64291 16.2571 2.33193 15.7231 2.04795 15.1713C2.04731 15.1713 2.04729 15.1707 2.04729 15.1707C1.93357 14.9489 1.90081 14.7469 1.95093 14.5713L1.95159 14.5707C2.0107 14.3614 2.12376 14.1264 2.711 13.9997C2.71164 13.9997 2.7123 13.9991 2.71294 13.9991C3.10743 13.9139 3.53531 14.0169 4.1399 14.3456C4.14054 14.3456 4.14182 14.3463 4.14247 14.3469C4.65261 14.6241 5.14992 15.0155 5.7545 15.6162C6.47345 16.3291 7.36459 16.8835 8.56027 17.36C8.64636 17.3937 8.73502 17.4148 8.8224 17.4228C8.82947 17.4241 8.83652 17.4254 8.84295 17.4267C8.87572 17.432 8.90913 17.4366 8.94254 17.4386C9.05562 17.4445 9.16679 17.4333 9.27023 17.4023C9.40966 17.3607 9.5362 17.2881 9.64221 17.1931C9.74822 17.096 9.83433 16.9752 9.89087 16.838C9.93327 16.737 9.95899 16.6281 9.96606 16.5132C9.96799 16.4868 9.96861 16.4604 9.96797 16.434L9.96863 5.24609V5.24544V5.23222L9.96606 4.79067C9.96157 4.35833 9.95768 3.94974 9.98723 3.55371C10.056 2.62633 10.6959 2.00918 11.6179 1.9808H11.6185C12.1756 1.97156 12.5598 2.07915 12.8573 2.3544C12.8579 2.3544 12.8579 2.35504 12.8586 2.35504C13.2016 2.67385 13.3642 3.07256 13.3694 3.6105V3.61115C13.3738 4.10222 13.3751 5.76622 13.3758 7.7246C13.37 7.78532 13.37 7.8454 13.3758 7.90678C13.3758 10.4473 13.3732 13.4294 13.3719 14.9845L13.3713 16.001C13.3713 16.5482 13.8024 16.9917 14.335 16.9917C14.8676 16.9917 15.2988 16.5489 15.2988 16.0023L15.2994 14.9858C15.3007 13.5251 15.3026 10.8031 15.3033 8.36881C15.7556 8.15495 16.2271 8.1457 16.7566 8.3325C16.7572 8.3325 16.7579 8.33318 16.7585 8.33318C17.1549 8.47443 17.5822 8.75229 17.7704 9.72983L17.7775 16.1337C17.7781 16.6796 18.2092 17.1224 18.7412 17.1224H18.7425C19.2745 17.1218 19.7056 16.6782 19.705 16.131L19.6985 10.2117C20.2389 9.96747 20.7702 9.98725 21.3433 10.2671C21.831 10.5067 22.1523 10.9074 22.1285 12.0955C22.1278 12.1159 22.1272 12.1371 22.1272 12.1588L22.0893 16.2822C22.0848 16.8294 22.512 17.2769 23.044 17.2815H23.0537C23.5818 17.2815 24.0123 16.8445 24.0168 16.3013L24.0483 12.8842C24.4209 12.8506 24.7678 12.9701 25.1238 13.2664C25.7496 13.7865 26.056 14.4419 26.0605 15.2677C26.076 17.9402 26.0721 33.8495 26.0721 34.0099C26.0721 34.5564 26.5032 35 27.0358 35C27.5678 35 27.9996 34.5571 27.9996 34.0099C27.9996 33.8502 28.0034 17.935 27.988 15.2558Z" fill="black"/>
</g>
<defs>
<clipPath id="clip0_15_18">
<rect width="28" height="35" fill="white"/>
</clipPath>
</defs>
</svg>
